<svg width="16" height="16" viewBox="0 0 16 16" fill="none" xmlns="http://www.w3.org/2000/svg">
<path d="M13.6154 6H7.38462C6.61991 6 6 6.61991 6 7.38462V13.6154C6 14.3801 6.61991 15 7.38462 15H13.6154C14.3801 15 15 14.3801 15 13.6154V7.38462C15 6.61991 14.3801 6 13.6154 6Z" stroke="#F77F00" stroke-width="2" stroke-linecap="round" stroke-linejoin="round"/>
<path d="M3.07692 10H2.38462C2.01739 10 1.66521 9.85412 1.40554 9.59446C1.14588 9.33479 1 8.98261 1 8.61538V2.38462C1 2.01739 1.14588 1.66521 1.40554 1.40554C1.66521 1.14588 2.01739 1 2.38462 1H8.61538C8.98261 1 9.33479 1.14588 9.59446 1.40554C9.85412 1.66521 10 2.01739 10 2.38462V3.07692" stroke="#F77F00" stroke-width="2" stroke-linecap="round" stroke-linejoin="round"/>
</svg>
