<svg width="16" height="16" viewBox="0 0 16 16" fill="none" xmlns="http://www.w3.org/2000/svg">
<circle cx="8" cy="8" r="7.4" stroke="#949494" stroke-width="1.2"/>
<path d="M7.93323 1L8.39928 0.62212C8.28536 0.481611 8.11412 0.4 7.93323 0.4C7.75234 0.4 7.5811 0.48161 7.46718 0.622118L7.93323 1ZM7.93323 15L7.47767 15.3905C7.59166 15.5235 7.75807 15.6 7.93323 15.6C8.10838 15.6 8.27479 15.5235 8.38878 15.3905L7.93323 15ZM7.46718 0.622118C5.41553 3.15247 4.33322 5.61554 4.33322 8.1C4.33322 10.5882 5.41861 12.9882 7.47767 15.3905L8.38878 14.6095C6.44783 12.3451 5.53322 10.2118 5.53322 8.1C5.53322 5.98446 6.45091 3.78086 8.39928 1.37788L7.46718 0.622118ZM8.38878 15.3905C10.4478 12.9882 11.5332 10.5882 11.5332 8.1C11.5332 5.61554 10.4509 3.15248 8.39928 0.62212L7.46717 1.37788C9.41553 3.78086 10.3332 5.98446 10.3332 8.1C10.3332 10.2118 9.41861 12.3451 7.47767 14.6095L8.38878 15.3905ZM0.933228 5.93332L15.1066 5.93332V4.73332L0.933228 4.73332L0.933228 5.93332Z" fill="#949494"/>
<path d="M0.933228 10.6667L15.2666 10.6667" stroke="#949494" stroke-width="1.2"/>
</svg>
